<?xml version="1.0" standalone="no"?>
<!DOCTYPE svg PUBLIC "-//W3C//DTD SVG 20010904//EN"
 "http://www.w3.org/TR/2001/REC-SVG-20010904/DTD/svg10.dtd">
<svg version="1.0" xmlns="http://www.w3.org/2000/svg"
 width="460.000000pt" height="460.000000pt" viewBox="0 0 460.000000 460.000000"
 preserveAspectRatio="xMidYMid meet">
<metadata>
Created by potrace 1.14, written by Peter Selinger 2001-2017
</metadata>
<g transform="translate(0.000000,460.000000) scale(0.100000,-0.100000)"
fill="#000000" stroke="none">
<path d="M0 2373 c0 -2165 1 -2226 18 -2209 17 15 60 16 440 16 391 -1 422 -2
422 -18 0 -9 3 -28 7 -41 6 -22 4 -24 -24 -18 -17 3 -48 1 -69 -5 -38 -10
-104 -66 -104 -87 0 -20 32 -12 51 13 10 13 34 31 52 39 43 21 98 7 140 -35
28 -28 33 -29 71 -19 23 5 62 13 88 16 57 7 104 54 113 112 14 89 9 83 79 83
62 0 64 1 105 45 22 24 41 49 41 55 0 16 71 56 124 69 74 18 103 37 131 85 61
104 366 258 569 288 106 15 130 6 141 -49 l7 -38 13 32 14 32 38 -15 c100 -42
146 -76 313 -234 152 -144 167 -156 222 -176 56 -20 240 -59 370 -79 57 -9
209 -41 338 -71 311 -72 355 -77 505 -58 85 11 158 14 253 9 l132 -6 0 777 0
777 -27 46 c-31 54 -133 190 -157 210 -9 7 -16 19 -16 26 0 19 -141 145 -163
145 -9 0 -12 -43 -13 -178 -1 -174 -2 -178 -33 -257 -39 -98 -65 -133 -86
-115 -8 7 -15 16 -15 21 0 5 -13 30 -29 56 -25 42 -29 61 -35 156 -4 60 -14
134 -23 165 -12 41 -17 101 -17 214 -1 182 -8 172 102 139 145 -44 159 -54
272 -187 117 -138 173 -220 213 -309 l27 -60 0 1433 0 1432 -2300 0 -2300 0 0
-2227z m2751 1482 c29 -15 48 -30 43 -35 -5 -5 -45 -23 -89 -41 -44 -17 -97
-40 -117 -50 -46 -24 -69 -23 -138 1 -30 11 -67 19 -82 20 -15 0 -29 4 -32 9
-3 4 6 6 19 3 15 -2 25 0 25 7 0 6 7 11 16 11 13 0 14 3 5 14 -9 11 -4 13 31
12 25 0 43 4 46 12 2 6 12 12 22 12 30 0 70 22 63 34 -4 7 -1 6 8 -1 16 -13
45 -1 35 15 -12 20 93 3 145 -23z m547 1 c46 -16 98 -70 115 -119 17 -49 37
-152 37 -190 0 -41 17 -32 25 13 4 22 11 40 15 40 22 0 47 -74 56 -163 7 -75
19 -92 34 -52 9 25 13 26 53 20 57 -9 72 -27 96 -115 34 -125 59 -481 37 -535
-7 -16 -11 -10 -25 34 -10 30 -23 57 -29 59 -20 6 -24 -24 -9 -60 21 -49 30
-104 43 -253 7 -83 -1 -96 -17 -26 -11 50 -87 244 -128 328 -17 34 -46 79 -64
100 -56 63 -60 75 -38 135 30 87 50 162 57 210 5 38 3 49 -15 67 -15 15 -32
21 -53 19 -43 -4 -48 -26 -6 -30 l33 -3 -1 -60 c-1 -66 -43 -199 -99 -313 -77
-159 -257 -385 -357 -448 -41 -26 -53 -30 -43 -14 10 16 -1 11 -16 -7 -12 -14
-12 -16 0 -8 10 5 12 4 7 -3 -4 -7 -14 -12 -22 -12 -8 0 -12 4 -9 10 3 6 -1 7
-9 4 -9 -3 -13 -10 -10 -15 3 -5 -2 -9 -10 -9 -10 0 -13 6 -10 18 3 9 -2 6
-10 -8 -14 -22 -15 -23 -16 -5 0 11 16 47 36 80 57 93 147 279 194 397 34 85
40 111 31 122 -10 12 -20 7 -59 -31 -62 -61 -191 -157 -199 -149 -3 3 -12 -3
-20 -14 -10 -15 -21 -18 -43 -13 -22 4 -30 2 -30 -9 0 -9 -9 -14 -22 -13 -13
1 -27 -3 -31 -9 -5 -7 -7 -3 -5 8 2 16 -4 20 -37 23 -22 2 -44 5 -50 7 -5 1
-14 -3 -20 -10 -8 -10 -16 -10 -39 0 l-29 12 58 49 c32 28 87 66 123 85 69 37
89 60 52 60 -28 0 -133 -57 -231 -126 -42 -30 -79 -51 -83 -47 -3 3 -6 -2 -6
-13 -1 -18 -1 -18 -14 -1 -8 10 -26 17 -45 17 -23 0 -31 5 -31 18 0 13 -2 14
-9 4 -7 -11 -9 -11 -14 1 -8 20 -47 10 -48 -12 0 -9 -7 -1 -15 17 -8 18 -12
37 -9 42 3 4 -1 11 -7 13 -10 4 -9 8 2 17 13 10 13 11 0 8 -8 -3 -22 2 -31 10
-17 15 -17 17 1 52 32 62 72 217 65 250 -6 28 -74 87 -117 103 -22 8 -24 47
-3 47 8 0 29 13 47 28 115 100 437 263 645 328 159 49 312 66 381 40z m-958
-70 c0 -2 -7 -6 -15 -10 -8 -3 -15 -1 -15 4 0 6 7 10 15 10 8 0 15 -2 15 -4z
m-477 -87 c112 -17 286 -96 319 -143 27 -40 -31 -309 -111 -513 -22 -55 -13
-76 9 -23 7 17 18 30 25 30 17 0 35 -53 35 -101 0 -45 16 -51 46 -18 28 31 68
49 85 39 10 -7 15 -37 17 -119 l4 -109 -38 -42 c-21 -23 -66 -62 -101 -87 -35
-25 -70 -58 -78 -73 -25 -48 -157 -151 -173 -135 -4 3 -5 40 -3 80 4 100 -18
164 -78 228 -67 72 -129 101 -217 101 -60 0 -81 -4 -137 -32 -36 -18 -77 -46
-91 -62 -13 -17 -30 -30 -35 -30 -6 0 -31 20 -55 45 -25 25 -49 45 -54 45 -6
0 -38 21 -73 46 -44 32 -56 38 -39 19 14 -15 54 -46 90 -70 36 -24 78 -57 94
-73 l28 -30 -18 -54 c-22 -67 -22 -159 0 -221 20 -55 16 -67 -25 -67 -16 0
-29 -4 -29 -10 0 -5 9 -10 21 -10 14 0 25 -11 35 -37 15 -35 15 -39 -8 -82
-32 -64 -32 -177 -1 -238 44 -83 158 -144 241 -128 108 20 185 93 207 195 9
41 19 50 62 50 52 0 63 -9 63 -49 0 -77 -78 -199 -162 -253 -49 -32 -57 -52
-38 -89 21 -39 42 -201 38 -301 l-3 -100 -44 -39 c-40 -36 -168 -109 -190
-109 -5 0 -15 16 -21 36 -12 34 -10 84 6 171 6 29 3 33 -36 53 -43 22 -190
138 -190 150 0 3 9 44 21 91 14 56 30 93 47 111 l25 28 -26 52 c-15 30 -27 59
-27 65 0 31 -26 19 -87 -38 -81 -75 -203 -156 -248 -165 -54 -10 -82 12 -139
109 -28 48 -68 112 -90 142 -71 101 -81 176 -26 199 32 13 140 130 140 151 0
7 -18 62 -39 122 -52 145 -64 231 -65 458 0 212 9 263 52 293 36 26 104 48
174 56 55 7 58 6 97 -29 22 -20 62 -45 88 -55 38 -14 53 -27 70 -60 25 -46 44
-72 49 -67 2 2 -5 21 -16 42 -11 22 -20 45 -20 51 0 7 19 27 43 45 45 36 57
49 57 64 0 5 -26 35 -59 65 -68 66 -81 86 -81 134 0 71 99 142 315 224 226 86
246 90 368 71z m549 0 c29 -6 57 -14 61 -19 4 -4 -38 -33 -95 -64 -57 -32
-115 -69 -129 -83 l-26 -24 -12 45 c-6 25 -17 46 -24 46 -7 0 -18 9 -25 21
-11 18 -11 20 5 17 10 -2 24 -10 31 -18 11 -13 11 -12 3 7 -14 29 -14 33 4 33
8 0 15 5 15 10 0 6 6 10 14 10 7 0 19 7 26 15 15 18 77 20 152 4z m-272 -49
c0 -5 -5 -10 -11 -10 -5 0 -7 5 -4 10 3 6 8 10 11 10 2 0 4 -4 4 -10z m966
-705 c-27 -64 -37 -74 -30 -30 6 32 25 63 42 65 1 0 -4 -16 -12 -35z m450 -82
c36 -60 107 -239 149 -378 34 -113 36 -128 37 -270 2 -128 -3 -177 -31 -339
-28 -162 -33 -224 -41 -455 -5 -146 -13 -282 -19 -302 -19 -62 -59 -110 -289
-344 l-223 -228 -86 7 c-47 4 -129 19 -182 32 -53 14 -109 23 -126 21 -21 -3
-39 3 -61 19 -17 13 -80 49 -140 80 -60 31 -110 58 -112 59 -1 1 9 33 23 71
23 59 26 79 20 134 -7 73 -85 319 -139 435 -31 66 -36 88 -36 149 0 106 -48
336 -99 468 -13 35 -11 36 134 88 267 95 722 343 840 456 56 54 178 227 259
368 l29 49 33 -39 c19 -21 46 -58 60 -81z m-516 38 c0 -24 -68 -214 -106 -296
-38 -82 -135 -225 -180 -265 -39 -34 -261 -147 -354 -180 -74 -27 -97 -25
-160 13 -41 24 -62 45 -82 82 -37 67 -36 81 10 96 58 18 128 56 164 88 18 16
71 48 117 72 65 34 98 59 145 112 49 56 78 77 149 112 77 39 229 137 265 172
19 19 32 16 32 -6z m-560 -42 c0 -5 -4 -9 -10 -9 -5 0 -10 7 -10 16 0 8 5 12
10 9 6 -3 10 -10 10 -16z m1509 -90 c20 -14 66 -41 101 -60 137 -72 229 -197
279 -379 26 -96 43 -212 31 -224 -4 -4 -20 11 -36 35 -30 46 -113 145 -220
264 -59 65 -154 197 -197 273 -18 32 -57 137 -57 154 0 5 14 -1 31 -14 18 -13
48 -35 68 -49z m-1392 55 c-3 -3 -12 -4 -19 -1 -8 3 -5 6 6 6 11 1 17 -2 13
-5z m-1137 -118 c0 -2 -7 -7 -16 -10 -8 -3 -12 -2 -9 4 6 10 25 14 25 6z m335
-446 c11 -17 -5 -32 -21 -19 -7 6 -11 15 -8 20 7 12 21 11 29 -1z m-405 -190
c0 -5 -2 -10 -4 -10 -3 0 -8 5 -11 10 -3 6 -1 10 4 10 6 0 11 -4 11 -10z
m2944 -99 l48 -49 -16 -49 c-15 -46 -88 -143 -107 -143 -5 0 -7 26 -4 58 3 31
7 96 11 145 3 48 9 87 12 87 4 0 29 -22 56 -49z m-348 -304 c14 -26 43 -74 65
-105 92 -129 131 -195 150 -254 19 -57 19 -70 9 -133 -7 -38 -22 -92 -33 -120
-19 -44 -79 -136 -114 -173 -23 -25 -13 1 15 37 37 49 74 123 68 138 -3 6 0
13 7 16 7 2 13 33 15 83 2 61 -1 87 -15 114 -22 43 -34 44 -53 3 -17 -37 -31
-44 -23 -10 3 12 2 19 -2 14 -8 -7 -12 -28 -14 -69 -1 -10 -12 -20 -25 -24
-14 -3 -41 -25 -62 -49 -20 -24 -47 -46 -60 -49 -13 -4 -24 -13 -24 -21 0 -21
-20 -19 -20 3 -1 15 -3 14 -18 -4 l-18 -21 -11 24 c-14 30 -6 78 57 323 35
136 50 209 50 242 0 18 3 50 7 71 7 43 9 41 49 -36z m-1918 -53 c40 -92 126
-270 144 -299 84 -129 129 -236 151 -355 23 -121 30 -180 23 -180 -14 0 -182
134 -255 203 l-73 69 -57 -8 c-96 -14 -108 -11 -155 38 -39 39 -68 56 -153 89
-31 12 -29 30 6 63 27 26 30 27 57 13 16 -8 57 -17 92 -20 34 -3 69 -11 78
-18 22 -18 27 -5 5 15 -11 10 -46 21 -83 26 -107 13 -108 15 -108 152 0 64 -3
123 -6 132 -9 23 28 20 60 -5 33 -26 37 -87 6 -107 -14 -8 -20 -22 -19 -45 l1
-32 14 33 c8 17 19 32 24 32 6 0 31 -21 55 -47 26 -28 45 -42 45 -33 0 8 -13
27 -29 43 -16 15 -32 42 -36 60 -19 95 -24 103 -65 122 -47 21 -60 35 -77 83
-15 45 -11 52 36 52 43 0 64 -16 126 -98 21 -28 45 -52 52 -52 6 0 15 17 19
38 8 45 39 108 56 115 24 10 32 1 66 -79z m1849 -556 c-3 -8 -6 -5 -6 6 -1 11
2 17 5 13 3 -3 4 -12 1 -19z m-97 -8 c0 -5 -2 -10 -4 -10 -3 0 -8 5 -11 10 -3
6 -1 10 4 10 6 0 11 -4 11 -10z m-1648 -156 c10 -3 18 -11 18 -18 0 -7 11 -18
25 -24 14 -6 25 -16 25 -22 0 -5 7 -10 16 -10 9 0 14 -6 12 -12 -7 -22 -66
-21 -112 1 -24 12 -62 21 -89 21 -36 0 -47 4 -47 15 0 9 -6 18 -14 21 -24 9
-27 34 -7 77 10 23 21 50 24 60 5 14 17 7 68 -43 34 -33 70 -62 81 -66z m1552
54 c-2 -40 -8 -75 -13 -78 -16 -10 -47 -115 -41 -139 6 -24 6 -24 48 18 52 53
55 43 5 -14 -34 -37 -65 -77 -85 -108 -20 -32 -13 15 27 173 64 256 67 264 59
148z m-1834 -128 c65 -33 91 -107 48 -133 -13 -8 -54 -33 -93 -56 -38 -23 -78
-47 -87 -54 -26 -18 -48 1 -66 55 -18 58 -10 107 25 149 50 59 109 72 173 39z
m247 -47 c5 -13 -121 -58 -137 -48 -17 10 -11 33 13 50 25 18 118 17 124 -2z
m-516 -86 c48 -32 75 -108 59 -167 -39 -144 -240 -147 -279 -4 -35 131 111
244 220 171z m1764 13 c26 -10 27 -12 21 -68 -8 -87 -8 -95 5 -103 24 -14 39
2 69 74 7 15 15 27 20 27 19 0 60 -51 61 -77 0 -15 1 -43 2 -61 1 -17 -1 -32
-5 -32 -5 0 -8 -4 -8 -9 0 -8 29 -21 55 -25 6 0 10 -12 10 -25 0 -13 9 -29 20
-35 11 -6 23 -16 27 -22 4 -7 20 -15 35 -19 21 -5 24 -8 13 -15 -17 -11 -5
-26 25 -32 11 -2 19 -9 18 -16 -2 -6 4 -9 12 -6 8 4 12 10 9 15 -3 5 2 9 10 9
9 0 16 -7 16 -15 0 -8 8 -15 18 -15 25 0 79 -27 85 -43 3 -9 21 -13 53 -11 34
2 44 0 34 -6 -21 -13 50 -13 84 0 24 9 26 8 26 -20 0 -24 -5 -29 -27 -32 -31
-3 -149 10 -173 19 -8 4 -42 12 -75 19 -100 20 -208 43 -245 54 -46 12 -190
37 -262 45 -32 4 -58 10 -58 15 0 4 10 6 21 3 20 -6 21 -3 16 23 -25 112 -28
147 -22 234 6 88 9 97 38 128 35 36 35 36 72 22z m515 -104 c0 -3 -4 -8 -10
-11 -5 -3 -10 -1 -10 4 0 6 5 11 10 11 6 0 10 -2 10 -4z m-841 -114 c28 -80
62 -119 128 -150 34 -16 60 -31 57 -34 -10 -10 -139 24 -148 39 -15 27 -57 58
-84 63 -25 5 -26 8 -23 60 1 30 7 58 13 61 21 13 45 -3 57 -39z m615 16 c63
-64 76 -71 158 -78 86 -8 116 -20 49 -20 -27 0 -40 -4 -36 -11 4 -6 -2 -5 -13
2 -16 10 -26 10 -46 1 -22 -10 -26 -9 -26 4 0 13 -7 15 -30 11 -22 -5 -30 -3
-30 8 0 19 -34 36 -57 29 -12 -4 -14 -3 -5 3 9 7 8 14 -6 29 -18 20 -18 54 0
54 6 0 25 -15 42 -32z m-2340 -2 c90 -38 101 -187 17 -243 -57 -39 -138 -23
-179 35 -40 56 -34 126 16 180 32 35 45 42 76 42 20 0 52 -6 70 -14z m2286
-41 c0 -8 -2 -15 -4 -15 -2 0 -6 7 -10 15 -3 8 -1 15 4 15 6 0 10 -7 10 -15z
m347 -51 c-3 -3 -12 -4 -19 -1 -8 3 -5 6 6 6 11 1 17 -2 13 -5z m528 -49 c14
-13 25 -28 25 -34 0 -5 -20 -21 -44 -35 -24 -14 -67 -51 -94 -82 l-50 -56 -89
-13 c-48 -7 -90 -12 -92 -10 -2 2 1 18 7 34 6 17 8 55 5 84 -5 50 -3 56 18 70
13 9 43 19 66 23 23 3 65 14 95 24 77 27 124 25 153 -5z m-3385 -60 c63 -32
92 -134 55 -191 -36 -56 -119 -80 -180 -52 -31 14 -65 75 -65 114 0 15 9 47
20 70 32 66 106 92 170 59z m2817 -77 c-3 -7 -5 -2 -5 12 0 14 2 19 5 13 2 -7
2 -19 0 -25z m128 -10 c5 4 5 1 1 -5 -10 -19 -36 -16 -36 3 0 13 3 14 13 5 8
-6 18 -7 22 -3z m62 -45 c-3 -10 -5 -4 -5 12 0 17 2 24 5 18 2 -7 2 -21 0 -30z"/>
<path d="M3210 3352 c-24 -11 -124 -77 -140 -93 -8 -8 -33 -26 -55 -39 -53
-32 -135 -109 -135 -126 0 -21 11 -17 50 17 61 52 213 164 263 193 26 15 47
34 47 42 0 15 -7 16 -30 6z"/>
<path d="M2868 2873 c7 -3 16 -2 19 1 4 3 -2 6 -13 5 -11 0 -14 -3 -6 -6z"/>
<path d="M1374 3084 c9 -74 36 -186 49 -199 10 -11 9 -4 -18 115 -8 36 -14 82
-15 103 0 21 -5 37 -11 37 -8 0 -10 -17 -5 -56z"/>
<path d="M2077 2879 c-9 -6 -27 -7 -40 -3 -19 6 -20 5 -8 -10 17 -20 31 -20
57 -2 23 17 16 29 -9 15z"/>
<path d="M3454 2540 c-26 -10 -41 -30 -22 -30 7 1 29 9 48 20 26 14 30 19 15
19 -11 0 -30 -4 -41 -9z"/>
<path d="M3470 2490 c0 -5 15 -10 33 -10 17 0 52 -9 76 -20 50 -23 55 -24 45
-9 -19 32 -154 66 -154 39z"/>
<path d="M3299 2223 c-5 -15 -9 -36 -7 -47 2 -13 7 -2 14 27 12 52 9 62 -7 20z"/>
<path d="M3430 2199 c-40 -24 -70 -54 -70 -69 0 -17 11 -12 41 20 16 16 42 36
59 45 16 8 30 18 30 20 0 11 -27 4 -60 -16z"/>
<path d="M2596 2185 c-15 -8 -37 -26 -48 -40 -11 -14 -32 -32 -46 -39 -115
-61 -218 -273 -191 -396 9 -42 57 -110 78 -110 5 0 3 17 -5 38 -16 46 -17 109
-3 168 17 67 27 62 26 -13 -1 -57 5 -79 31 -135 48 -99 98 -131 171 -109 101
30 145 179 105 354 -14 59 -24 79 -55 111 -22 21 -39 40 -39 42 0 2 12 4 26 4
17 0 38 -12 58 -33 29 -32 43 -56 79 -137 20 -45 22 -14 3 55 -18 68 -38 104
-83 147 -43 42 -81 59 -112 51 -34 -9 -24 7 14 23 51 21 117 18 149 -7 15 -12
40 -44 56 -73 17 -28 30 -43 30 -33 0 30 -26 71 -69 110 -36 33 -47 37 -94 37
-28 0 -65 -7 -81 -15z m-58 -187 c29 -29 0 -118 -38 -118 -30 0 -34 36 -10 85
23 48 29 52 48 33z m100 -335 c5 -52 -49 -76 -91 -40 -15 12 -27 26 -27 31 0
13 29 38 39 32 5 -3 20 -2 33 3 33 14 43 8 46 -26z"/>
<path d="M3455 2147 c-93 -45 -130 -140 -123 -313 4 -111 23 -159 71 -182 38
-18 63 -7 94 40 25 37 27 47 27 156 0 70 -5 136 -13 165 -16 57 -8 73 32 58
33 -13 57 -49 73 -109 11 -45 12 -46 19 -19 4 15 5 59 3 97 -3 58 -8 74 -28
95 -38 37 -94 41 -155 12z m-30 -150 c6 -24 -7 -71 -23 -81 -5 -3 -15 1 -22 9
-10 12 -10 24 -1 55 13 44 37 53 46 17z m43 -256 c-13 -22 -38 -25 -45 -5 -3
9 47 34 55 28 2 -1 -3 -12 -10 -23z"/>
<path d="M3155 968 c-23 -12 -34 -23 -27 -26 16 -5 92 27 92 40 0 13 -22 9
-65 -14z"/>
<path d="M2750 2521 c8 -5 31 -11 50 -14 32 -6 34 -6 16 8 -11 8 -34 15 -50
15 -22 -1 -27 -3 -16 -9z"/>
<path d="M2654 2460 c-102 -27 -247 -102 -311 -162 -29 -28 -53 -55 -53 -59 0
-19 20 -7 62 37 75 79 250 163 371 178 31 4 55 12 52 17 -9 13 -41 10 -121
-11z"/>
<path d="M2198 823 c7 -3 16 -2 19 1 4 3 -2 6 -13 5 -11 0 -14 -3 -6 -6z"/>
<path d="M3496 563 c-6 -14 -5 -15 5 -6 7 7 10 15 7 18 -3 3 -9 -2 -12 -12z"/>
<path d="M3540 550 c-1 -8 -2 -18 -1 -22 0 -5 -3 -8 -9 -8 -5 0 -10 4 -10 10
0 5 -7 7 -15 4 -12 -5 -10 -10 11 -26 31 -25 37 -20 31 24 -2 18 -5 26 -7 18z"/>
<path d="M3938 163 c7 -3 16 -2 19 1 4 3 -2 6 -13 5 -11 0 -14 -3 -6 -6z"/>
</g>
</svg>
